<mxfile host="65bd71144e">
    <diagram id="zCStk__IQNlemlmxd5yO" name="第 1 页">
        <mxGraphModel dx="611" dy="454" grid="1" gridSize="10" guides="1" tooltips="1" connect="1" arrows="1" fold="1" page="1" pageScale="1" pageWidth="850" pageHeight="1100" background="#ffffff" math="0" shadow="0">
            <root>
                <mxCell id="0"/>
                <mxCell id="1" parent="0"/>
                <mxCell id="53" value="" style="rounded=1;whiteSpace=wrap;html=1;strokeColor=#666666;strokeWidth=3;fillColor=none;dashed=1;arcSize=3;" vertex="1" parent="1">
                    <mxGeometry x="119" y="263" width="430" height="105" as="geometry"/>
                </mxCell>
                <mxCell id="13" value="" style="rounded=1;whiteSpace=wrap;html=1;strokeColor=#666666;strokeWidth=3;fillColor=none;dashed=1;arcSize=3;" vertex="1" parent="1">
                    <mxGeometry x="120" y="79" width="210" height="140" as="geometry"/>
                </mxCell>
                <mxCell id="14" value="自动驾驶系统架构" style="text;html=1;strokeColor=none;fillColor=none;align=left;verticalAlign=middle;whiteSpace=wrap;rounded=0;fontSize=22;fontColor=#990000;fontStyle=1" vertex="1" parent="1">
                    <mxGeometry x="25" y="22" width="195" height="30" as="geometry"/>
                </mxCell>
                <mxCell id="20" value="油门系统" style="rounded=0;whiteSpace=wrap;html=1;fillColor=#007FFF;fontColor=#F0F0F0;" vertex="1" parent="1">
                    <mxGeometry x="132" y="469" width="130" height="30" as="geometry"/>
                </mxCell>
                <mxCell id="22" value="Dijkstra算法" style="rounded=0;whiteSpace=wrap;html=1;fillColor=#999999;fontColor=#FF0000;fontStyle=1;fontSize=13;strokeColor=#999999;" vertex="1" parent="1">
                    <mxGeometry x="132" y="328" width="100" height="30" as="geometry"/>
                </mxCell>
                <mxCell id="23" value="高精地图" style="rounded=0;whiteSpace=wrap;html=1;fillColor=#007FFF;fontColor=#F0F0F0;" vertex="1" parent="1">
                    <mxGeometry x="132" y="291" width="398" height="30" as="geometry"/>
                </mxCell>
                <mxCell id="27" value="超&lt;br&gt;声&lt;br&gt;波&lt;br&gt;雷&lt;br&gt;达" style="rounded=0;whiteSpace=wrap;html=1;fillColor=#007FFF;fontColor=#F0F0F0;horizontal=1;verticalAlign=middle;textDirection=rtl;" vertex="1" parent="1">
                    <mxGeometry x="280" y="109" width="35" height="100" as="geometry"/>
                </mxCell>
                <mxCell id="28" value="毫&lt;br&gt;米&lt;br&gt;波&lt;br&gt;雷&lt;br&gt;达" style="rounded=0;whiteSpace=wrap;html=1;fillColor=#007FFF;fontColor=#F0F0F0;horizontal=1;verticalAlign=middle;textDirection=rtl;" vertex="1" parent="1">
                    <mxGeometry x="230" y="109" width="35" height="100" as="geometry"/>
                </mxCell>
                <mxCell id="30" value="摄&lt;br&gt;像&lt;br&gt;头" style="rounded=0;whiteSpace=wrap;html=1;fillColor=#007FFF;fontColor=#F0F0F0;horizontal=1;verticalAlign=middle;textDirection=rtl;" vertex="1" parent="1">
                    <mxGeometry x="130" y="109" width="35" height="100" as="geometry"/>
                </mxCell>
                <mxCell id="31" value="传&lt;br&gt;感&lt;br&gt;器&lt;br&gt;定&lt;br&gt;位" style="rounded=0;whiteSpace=wrap;html=1;fillColor=#007FFF;fontColor=#F0F0F0;horizontal=1;verticalAlign=middle;textDirection=rtl;" vertex="1" parent="1">
                    <mxGeometry x="520" y="109" width="35" height="100" as="geometry"/>
                </mxCell>
                <mxCell id="32" value="惯&lt;br&gt;性&lt;br&gt;定&lt;br&gt;位" style="rounded=0;whiteSpace=wrap;html=1;fillColor=#007FFF;fontColor=#F0F0F0;horizontal=1;verticalAlign=middle;textDirection=rtl;" vertex="1" parent="1">
                    <mxGeometry x="470" y="109" width="35" height="100" as="geometry"/>
                </mxCell>
                <mxCell id="33" value="差&lt;br&gt;分&lt;br&gt;定&lt;br&gt;位" style="rounded=0;whiteSpace=wrap;html=1;fillColor=#007FFF;fontColor=#F0F0F0;horizontal=1;verticalAlign=middle;textDirection=rtl;" vertex="1" parent="1">
                    <mxGeometry x="420" y="109" width="35" height="100" as="geometry"/>
                </mxCell>
                <mxCell id="34" value="卫&lt;br&gt;星&lt;br&gt;定&lt;br&gt;位" style="rounded=0;whiteSpace=wrap;html=1;fillColor=#007FFF;fontColor=#F0F0F0;horizontal=1;verticalAlign=middle;textDirection=rtl;" vertex="1" parent="1">
                    <mxGeometry x="370" y="109" width="35" height="100" as="geometry"/>
                </mxCell>
                <mxCell id="35" value="V&lt;br&gt;2&lt;br&gt;N" style="rounded=0;whiteSpace=wrap;html=1;fillColor=#007FFF;fontColor=#F0F0F0;horizontal=1;verticalAlign=middle;textDirection=rtl;" vertex="1" parent="1">
                    <mxGeometry x="666" y="109" width="35" height="100" as="geometry"/>
                </mxCell>
                <mxCell id="36" value="V&lt;br&gt;2&lt;br&gt;X" style="rounded=0;whiteSpace=wrap;html=1;fillColor=#007FFF;fontColor=#F0F0F0;horizontal=1;verticalAlign=middle;textDirection=rtl;" vertex="1" parent="1">
                    <mxGeometry x="616" y="109" width="35" height="100" as="geometry"/>
                </mxCell>
                <mxCell id="37" value="&lt;font color=&quot;#000000&quot;&gt;环境感知&lt;/font&gt;" style="text;html=1;strokeColor=none;fillColor=none;align=center;verticalAlign=middle;whiteSpace=wrap;rounded=0;fontColor=#F0F0F0;" vertex="1" parent="1">
                    <mxGeometry x="190" y="84" width="60" height="20" as="geometry"/>
                </mxCell>
                <mxCell id="38" value="&lt;font color=&quot;#000000&quot;&gt;V2X&lt;/font&gt;" style="text;html=1;strokeColor=none;fillColor=none;align=center;verticalAlign=middle;whiteSpace=wrap;rounded=0;fontColor=#F0F0F0;" vertex="1" parent="1">
                    <mxGeometry x="628.5" y="84" width="60" height="20" as="geometry"/>
                </mxCell>
                <mxCell id="39" value="&lt;font color=&quot;#000000&quot;&gt;定位&lt;/font&gt;" style="text;html=1;strokeColor=none;fillColor=none;align=center;verticalAlign=middle;whiteSpace=wrap;rounded=0;fontColor=#F0F0F0;" vertex="1" parent="1">
                    <mxGeometry x="435" y="84" width="60" height="20" as="geometry"/>
                </mxCell>
                <mxCell id="40" value="激&lt;br&gt;光&lt;br&gt;雷&lt;br&gt;达" style="rounded=0;whiteSpace=wrap;html=1;fillColor=#007FFF;fontColor=#F0F0F0;horizontal=1;verticalAlign=middle;textDirection=rtl;" vertex="1" parent="1">
                    <mxGeometry x="180" y="109" width="30" height="100" as="geometry"/>
                </mxCell>
                <mxCell id="42" value="" style="rounded=1;whiteSpace=wrap;html=1;strokeColor=#666666;strokeWidth=3;fillColor=none;dashed=1;arcSize=3;" vertex="1" parent="1">
                    <mxGeometry x="360" y="79" width="210" height="140" as="geometry"/>
                </mxCell>
                <mxCell id="43" value="" style="rounded=1;whiteSpace=wrap;html=1;strokeColor=#666666;strokeWidth=3;fillColor=none;dashed=1;arcSize=3;" vertex="1" parent="1">
                    <mxGeometry x="601" y="79" width="110" height="140" as="geometry"/>
                </mxCell>
                <mxCell id="44" value="Floyd算法" style="rounded=0;whiteSpace=wrap;html=1;fillColor=#999999;fontColor=#FF0000;fontStyle=1;fontSize=13;strokeColor=#999999;" vertex="1" parent="1">
                    <mxGeometry x="239.5" y="328" width="100" height="30" as="geometry"/>
                </mxCell>
                <mxCell id="45" value="A*算法" style="rounded=0;whiteSpace=wrap;html=1;fillColor=#999999;fontColor=#FF0000;fontStyle=1;fontSize=13;strokeColor=#999999;" vertex="1" parent="1">
                    <mxGeometry x="349.5" y="328" width="90" height="30" as="geometry"/>
                </mxCell>
                <mxCell id="46" value="RPT算法" style="rounded=0;whiteSpace=wrap;html=1;fillColor=#999999;fontColor=#FF0000;fontStyle=1;fontSize=13;strokeColor=#999999;" vertex="1" parent="1">
                    <mxGeometry x="449.5" y="328" width="85" height="30" as="geometry"/>
                </mxCell>
                <mxCell id="47" value="CAN数据总线" style="rounded=0;whiteSpace=wrap;html=1;fillColor=#007FFF;fontColor=#F0F0F0;" vertex="1" parent="1">
                    <mxGeometry x="132" y="429" width="568" height="30" as="geometry"/>
                </mxCell>
                <mxCell id="52" value="" style="edgeStyle=none;html=1;fontSize=13;fontColor=#FF0000;" edge="1" parent="1" source="48" target="43">
                    <mxGeometry relative="1" as="geometry"/>
                </mxCell>
                <mxCell id="48" value="自动驾驶行为预测" style="rounded=0;whiteSpace=wrap;html=1;fillColor=#007FFF;fontColor=#F0F0F0;" vertex="1" parent="1">
                    <mxGeometry x="578.75" y="291" width="117.5" height="30" as="geometry"/>
                </mxCell>
                <mxCell id="49" value="自动驾驶行为决策" style="rounded=0;whiteSpace=wrap;html=1;fillColor=#007FFF;fontColor=#F0F0F0;" vertex="1" parent="1">
                    <mxGeometry x="578.75" y="328" width="117.5" height="30" as="geometry"/>
                </mxCell>
                <mxCell id="50" value="&lt;font color=&quot;#000000&quot;&gt;路径规划&lt;/font&gt;" style="text;html=1;strokeColor=none;fillColor=none;align=center;verticalAlign=middle;whiteSpace=wrap;rounded=0;fontColor=#F0F0F0;" vertex="1" parent="1">
                    <mxGeometry x="315" y="268" width="60" height="20" as="geometry"/>
                </mxCell>
                <mxCell id="51" value="&lt;font color=&quot;#000000&quot;&gt;行为决策&lt;/font&gt;" style="text;html=1;strokeColor=none;fillColor=none;align=center;verticalAlign=middle;whiteSpace=wrap;rounded=0;fontColor=#F0F0F0;" vertex="1" parent="1">
                    <mxGeometry x="607.5" y="268" width="60" height="20" as="geometry"/>
                </mxCell>
                <mxCell id="54" value="" style="rounded=1;whiteSpace=wrap;html=1;strokeColor=#666666;strokeWidth=3;fillColor=none;dashed=1;arcSize=3;" vertex="1" parent="1">
                    <mxGeometry x="570" y="263" width="140" height="105" as="geometry"/>
                </mxCell>
                <mxCell id="56" value="转向系统" style="rounded=0;whiteSpace=wrap;html=1;fillColor=#007FFF;fontColor=#F0F0F0;" vertex="1" parent="1">
                    <mxGeometry x="275" y="469" width="130" height="30" as="geometry"/>
                </mxCell>
                <mxCell id="57" value="制动系统" style="rounded=0;whiteSpace=wrap;html=1;fillColor=#007FFF;fontColor=#F0F0F0;" vertex="1" parent="1">
                    <mxGeometry x="417.5" y="469" width="130" height="30" as="geometry"/>
                </mxCell>
                <mxCell id="58" value="换挡系统" style="rounded=0;whiteSpace=wrap;html=1;fillColor=#007FFF;fontColor=#F0F0F0;" vertex="1" parent="1">
                    <mxGeometry x="566.25" y="469" width="130" height="30" as="geometry"/>
                </mxCell>
                <mxCell id="59" value="" style="rounded=1;whiteSpace=wrap;html=1;strokeColor=#666666;strokeWidth=3;fillColor=none;dashed=1;arcSize=3;" vertex="1" parent="1">
                    <mxGeometry x="117.5" y="419" width="592.5" height="105" as="geometry"/>
                </mxCell>
                <mxCell id="60" value="&lt;font color=&quot;#000000&quot; style=&quot;font-size: 16px&quot;&gt;环&lt;br&gt;境&lt;br&gt;感&lt;br&gt;知&lt;br&gt;定&lt;br&gt;位&lt;/font&gt;" style="text;html=1;strokeColor=none;fillColor=none;align=center;verticalAlign=middle;whiteSpace=wrap;rounded=0;fontColor=#F0F0F0;fontSize=16;fontStyle=1" vertex="1" parent="1">
                    <mxGeometry x="60" y="79" width="40" height="135" as="geometry"/>
                </mxCell>
                <mxCell id="61" value="&lt;font color=&quot;#000000&quot;&gt;决&lt;br&gt;策&lt;br&gt;规&lt;br&gt;划&lt;/font&gt;" style="text;html=1;strokeColor=none;fillColor=none;align=center;verticalAlign=middle;whiteSpace=wrap;rounded=0;fontColor=#F0F0F0;fontSize=16;fontStyle=1" vertex="1" parent="1">
                    <mxGeometry x="60" y="248" width="40" height="135" as="geometry"/>
                </mxCell>
                <mxCell id="62" value="&lt;font color=&quot;#000000&quot;&gt;执&lt;br&gt;行&lt;br&gt;控&lt;br&gt;制&lt;/font&gt;" style="text;html=1;strokeColor=none;fillColor=none;align=center;verticalAlign=middle;whiteSpace=wrap;rounded=0;fontColor=#F0F0F0;fontSize=16;fontStyle=1" vertex="1" parent="1">
                    <mxGeometry x="60" y="404" width="40" height="135" as="geometry"/>
                </mxCell>
                <mxCell id="63" value="" style="rounded=1;whiteSpace=wrap;html=1;strokeColor=#666666;strokeWidth=3;fillColor=none;arcSize=0;" vertex="1" parent="1">
                    <mxGeometry x="54" y="69" width="670" height="161" as="geometry"/>
                </mxCell>
                <mxCell id="64" value="" style="rounded=1;whiteSpace=wrap;html=1;strokeColor=#666666;strokeWidth=3;fillColor=none;arcSize=0;" vertex="1" parent="1">
                    <mxGeometry x="52.5" y="409" width="670" height="130" as="geometry"/>
                </mxCell>
                <mxCell id="65" value="" style="rounded=1;whiteSpace=wrap;html=1;strokeColor=#666666;strokeWidth=3;fillColor=none;arcSize=0;" vertex="1" parent="1">
                    <mxGeometry x="52.5" y="253" width="670" height="130" as="geometry"/>
                </mxCell>
            </root>
        </mxGraphModel>
    </diagram>
</mxfile>